<svg width="14" height="8" viewBox="0 0 14 8" fill="none" xmlns="http://www.w3.org/2000/svg">
<path d="M11.6667 1.55556V6.22222H1.55556V1.55556H11.6667ZM12.4444 5.05556H13.2222V2.72222H12.4444V0.972222C12.4444 0.915509 12.4262 0.868924 12.3898 0.832465C12.3533 0.796007 12.3067 0.777778 12.25 0.777778H0.972222C0.915509 0.777778 0.868924 0.796007 0.832465 0.832465C0.796007 0.868924 0.777778 0.915509 0.777778 0.972222V6.80556C0.777778 6.86227 0.796007 6.90885 0.832465 6.94531C0.868924 6.98177 0.915509 7 0.972222 7H12.25C12.3067 7 12.3533 6.98177 12.3898 6.94531C12.4262 6.90885 12.4444 6.86227 12.4444 6.80556V5.05556ZM14 2.72222V5.05556C14 5.27025 13.924 5.45356 13.7721 5.60547C13.6202 5.75738 13.4369 5.83333 13.2222 5.83333V6.80556C13.2222 7.07292 13.127 7.30179 12.9366 7.49219C12.7462 7.68258 12.5174 7.77778 12.25 7.77778H0.972222C0.704861 7.77778 0.475984 7.68258 0.28559 7.49219C0.0951968 7.30179 0 7.07292 0 6.80556V0.972222C0 0.704861 0.0951968 0.475984 0.28559 0.28559C0.475984 0.0951968 0.704861 0 0.972222 0H12.25C12.5174 0 12.7462 0.0951968 12.9366 0.28559C13.127 0.475984 13.2222 0.704861 13.2222 0.972222V1.94444C13.4369 1.94444 13.6202 2.0204 13.7721 2.17231C13.924 2.32422 14 2.50752 14 2.72222Z" fill="white"/>
</svg>
