<svg width="139" height="80" viewBox="0 0 139 80" fill="none" xmlns="http://www.w3.org/2000/svg">
<path d="M26.8473 79.9211C41.6747 79.9211 53.6946 65.2808 53.6946 47.2211C53.6946 29.1613 41.6747 14.521 26.8473 14.521C12.0199 14.521 0 29.1613 0 47.2211C0 65.2808 12.0199 79.9211 26.8473 79.9211Z" fill="white"/>
<path d="M21.2182 38.5186C20.2439 36.9364 18.2953 36.9364 17.1045 37.9912C15.8054 39.1779 15.2641 40.4965 15.0476 42.6062C14.7228 40.6283 14.0733 39.1779 12.666 38.1231C11.3669 37.0682 9.41832 37.2001 8.55228 38.7823C8.011 39.7053 7.90274 41.0239 8.011 42.2106C8.11925 43.3973 8.44402 44.7158 9.09355 45.507C11.3669 48.6715 12.4495 49.1989 15.2641 51.4405C17.9705 49.0671 18.8366 48.5396 20.8934 45.2433C21.4347 44.3203 21.7594 43.0017 21.8677 41.815C21.976 40.7602 21.7595 39.4416 21.2182 38.5186Z" fill="white"/>
<path d="M44.926 37.8593C43.9517 36.2771 42.0031 36.2771 40.8123 37.3319C39.5132 38.5186 38.9719 39.8372 38.7554 41.9468C38.4307 39.969 37.7811 38.5186 36.3738 37.4638C35.0747 36.4089 33.1262 36.5408 32.2601 38.123C31.7188 39.046 31.6106 40.3646 31.7188 41.5513C31.8271 42.738 32.1519 44.0565 32.8014 44.8477C35.0748 48.0122 36.1573 48.5396 38.972 50.7811C41.6783 48.4077 42.5443 47.8803 44.6012 44.5839C45.1425 43.661 45.4673 42.3424 45.5755 41.1557C45.6838 40.1009 45.5755 38.7823 44.926 37.8593Z" fill="white"/>
<path d="M35.9407 54.7368C35.6159 60.1428 31.5023 64.7578 27.172 64.7578C22.7336 64.7578 18.6198 60.2747 18.2951 54.8686L35.9407 54.7368Z" fill="white"/>
<path d="M137.917 1.46735C136.618 -0.510477 134.129 -0.378628 132.613 1.20363C131.097 2.78589 130.34 4.63187 130.231 7.26897C129.798 4.63187 128.716 3.0496 126.984 1.73105C125.252 0.412504 122.762 0.676216 121.679 2.91775C121.03 4.2363 120.921 5.81856 121.138 7.40082C121.354 8.98308 121.787 10.5653 122.653 11.6202C125.685 15.444 127.2 16.1033 130.881 18.7404C134.237 15.5758 135.319 14.6528 137.917 10.4335C138.675 9.24679 138.892 7.53268 139 6.08227C139 4.36816 138.675 2.65404 137.917 1.46735Z" fill="white"/>
</svg>
